<svg width="256" height="256" viewBox="0 0 256 256" fill="none" xmlns="http://www.w3.org/2000/svg">
<g clip-path="url(#clip0_5_8)">
<path d="M196 0H60C26.8629 0 0 26.8629 0 60V196C0 229.137 26.8629 256 60 256H196C229.137 256 256 229.137 256 196V60C256 26.8629 229.137 0 196 0Z" fill="#242938"/>
<path d="M46 97.25H210V155.333H128V165.583H90.4167V155.333H46V97.25Z" fill="#D50000"/>
<path d="M56.25 145.083H73.3333V117.75H83.5833V145.083H90.4167V107.5H56.25V145.083ZM100.667 107.5V155.333H117.75V145.083H134.833V107.5H100.667ZM128 134.833H117.75V117.75H128V134.833ZM145.083 107.5V145.083H162.167V117.75H172.417V145.083H182.667V117.75H192.917V145.083H199.75V107.5H145.083Z" fill="white"/>
</g>
<defs>
<clipPath id="clip0_5_8">
<rect width="256" height="256" fill="white"/>
</clipPath>
</defs>
</svg>
