<svg width="256" height="256" viewBox="0 0 256 256" fill="none" xmlns="http://www.w3.org/2000/svg">
<g clip-path="url(#clip0_4_2)">
<path d="M196 0H60C26.8629 0 0 26.8629 0 60V196C0 229.137 26.8629 256 60 256H196C229.137 256 256 229.137 256 196V60C256 26.8629 229.137 0 196 0Z" fill="#F4F2ED"/>
<g clip-path="url(#clip1_4_2)">
<path d="M128 43C81.0695 43 43 81.0695 43 128C43 174.931 81.0695 213 128 213C174.931 213 213 174.931 213 128C213 81.0695 174.931 43 128 43Z" fill="#368FB9"/>
<path d="M178.015 158.587C172.764 159.834 170.106 160.983 163.608 165.216C153.467 171.78 142.375 174.832 142.375 174.832C142.375 174.832 141.456 176.21 138.797 176.834C134.203 177.95 116.907 178.901 115.332 178.934C111.098 178.967 108.506 177.851 107.784 176.112C105.585 170.861 110.934 168.564 110.934 168.564C110.934 168.564 109.753 167.842 109.064 167.185C108.44 166.562 107.784 165.315 107.587 165.774C106.766 167.776 106.34 172.666 104.141 174.865C101.122 177.917 95.4112 176.9 92.0309 175.127C88.3224 173.158 92.2934 168.531 92.2934 168.531C92.2934 168.531 90.2915 169.712 88.6834 167.284C87.2394 165.052 85.8938 161.245 86.2548 156.552C86.6486 151.203 92.6216 146.017 92.6216 146.017C92.6216 146.017 91.5714 138.108 95.0174 130.002C98.1351 122.618 106.537 116.678 106.537 116.678C106.537 116.678 99.4807 108.867 102.106 101.844C103.813 97.249 104.502 97.2818 105.06 97.0849C107.029 96.3301 108.932 95.5096 110.344 93.9671C117.4 86.3532 126.392 87.7972 126.392 87.7972C126.392 87.7972 130.658 74.8339 134.597 77.3609C135.811 78.1486 140.176 87.8629 140.176 87.8629C140.176 87.8629 144.836 85.1389 145.361 86.1563C148.183 91.637 148.512 102.106 147.264 108.473C145.164 118.975 139.913 124.62 137.813 128.164C137.32 128.984 143.458 131.577 147.33 142.309C150.907 152.122 147.724 160.359 148.282 161.278C148.38 161.442 148.413 161.508 148.413 161.508C148.413 161.508 152.515 161.836 160.753 156.749C165.151 154.025 170.369 150.973 176.309 150.907C182.052 150.809 182.347 157.537 178.015 158.587ZM185.826 153.762C185.236 149.102 181.297 145.886 176.243 145.952C168.695 146.05 162.361 149.956 158.16 152.548C156.519 153.566 155.108 154.32 153.894 154.878C154.156 151.071 153.927 146.083 151.958 140.602C149.562 134.039 146.346 130.002 144.048 127.672C146.707 123.799 150.349 118.154 152.056 109.425C153.533 101.975 153.073 90.3899 149.693 83.8918C149.004 82.5791 147.855 81.6274 146.411 81.2335C145.82 81.0694 144.705 80.7413 142.506 81.3648C139.191 74.5057 138.042 73.7837 137.156 73.193C135.319 72.0115 133.152 71.749 131.118 72.5038C128.394 73.4884 126.064 76.1138 123.865 80.7741C123.537 81.4633 123.241 82.1196 122.979 82.776C118.811 83.0714 112.247 84.581 106.701 90.5868C106.012 91.3416 104.666 91.8996 103.255 92.4247H103.288C100.4 93.442 99.0869 95.805 97.4788 100.071C95.2471 106.044 97.5444 111.919 99.8089 115.726C96.7239 118.483 92.6216 122.88 90.4556 128.033C87.7645 134.4 87.4691 140.635 87.5676 144.015C85.2703 146.444 81.7259 151.006 81.332 156.125C80.8069 163.28 83.3996 168.137 84.5483 169.909C84.8764 170.434 85.2374 170.861 85.6313 171.288C85.5 172.174 85.4672 173.125 85.6641 174.11C86.0907 176.407 87.5347 178.278 89.7336 179.459C94.0656 181.757 100.104 182.741 104.764 180.411C106.438 182.183 109.49 183.89 115.037 183.89H115.365C116.776 183.89 134.695 182.938 139.913 181.658C142.243 181.1 143.851 180.116 144.902 179.23C148.249 178.179 157.504 175.029 166.234 169.384C172.403 165.38 174.537 164.527 179.131 163.411C183.595 162.328 186.384 158.259 185.826 153.762Z" fill="white"/>
</g>
</g>
<defs>
<clipPath id="clip0_4_2">
<rect width="256" height="256" fill="white"/>
</clipPath>
<clipPath id="clip1_4_2">
<rect width="170" height="170" fill="white" transform="translate(43 43)"/>
</clipPath>
</defs>
</svg>
