<svg width="500" height="500" viewBox="0 0 500 500" fill="none" xmlns="http://www.w3.org/2000/svg">
<path d="M122.284 232.737L122.299 232.697L122.307 232.656C122.455 231.919 122.614 231.236 122.77 230.568C122.881 230.094 122.99 229.628 123.092 229.153C123.332 228.037 123.518 226.941 123.528 225.832C123.562 222.352 123.598 218.872 123.635 215.391C123.808 198.894 123.982 182.389 123.817 165.889C123.712 155.449 115.622 148.103 105.67 148.345C95.6464 148.589 88.4425 156.242 88.4015 166.748C88.364 176.36 88.3712 185.974 88.3784 195.586C88.3815 199.795 88.3847 204.005 88.3841 208.214C88.3839 209.361 88.3898 210.506 88.3957 211.65C88.4095 214.335 88.4234 217.012 88.3584 219.691C88.3121 221.601 87.9094 223.23 87.0514 224.384C86.2113 225.515 84.8881 226.254 82.8435 226.31C80.7794 226.366 79.4251 225.709 78.5526 224.635C77.6607 223.537 77.2131 221.932 77.1355 219.99C77.0771 218.531 77.0875 217.077 77.098 215.609C77.103 214.915 77.108 214.217 77.1057 213.515C77.0902 208.732 77.1074 203.946 77.1245 199.157C77.1651 187.791 77.2058 176.413 76.8109 165.055C76.4536 154.78 68.1858 147.926 58.4332 148.355C48.6384 148.785 41.4652 156.412 41.4401 166.555C41.4335 169.219 41.4259 171.883 41.4183 174.547C41.3737 190.2 41.3291 205.858 41.4875 221.513C41.6282 235.417 47.7451 246.535 58.9691 254.495C81.9106 270.766 111.585 260.559 122.284 232.737ZM98.5473 228.772L98.652 228.668L98.6839 228.524C98.8242 227.891 98.9655 227.274 99.1037 226.672C99.786 223.694 100.391 221.055 100.412 218.414C100.501 207.425 100.493 196.434 100.485 185.445C100.481 179.776 100.476 174.109 100.485 168.443C100.49 165.713 101.043 163.712 102.014 162.416C102.967 161.146 104.365 160.496 106.229 160.545C108.03 160.592 109.358 161.253 110.254 162.48C111.167 163.731 111.677 165.631 111.681 168.234C111.686 171.603 111.692 174.971 111.698 178.339C111.725 192.294 111.751 206.246 111.665 220.198C111.563 236.752 99.5292 249.25 83.6993 249.547C66.9472 249.861 54.1119 238.083 53.7143 221.235C53.4103 208.351 53.4765 195.461 53.5427 182.564C53.5689 177.472 53.5951 172.378 53.5984 167.283C53.5997 165.347 54.014 163.762 54.8826 162.626C55.7401 161.504 57.0904 160.755 59.1102 160.58C60.8347 160.43 62.2459 161.018 63.2398 162.167C64.245 163.328 64.8606 165.11 64.8695 167.395C64.8971 174.556 64.8825 181.723 64.8678 188.891C64.8466 199.216 64.8255 209.544 64.9308 219.865C65.0034 226.98 68.2849 232.731 73.104 235.923C77.9273 239.118 84.2573 239.725 90.3503 236.614C92.023 235.76 93.4241 234.426 94.7216 233.009C95.2183 232.467 95.6942 231.92 96.1651 231.378C96.9491 230.476 97.7192 229.591 98.5473 228.772Z" fill="#374C86" stroke="#374C86"/>
<path d="M170.519 201.783L170.537 201.616L170.451 201.473C166.064 194.135 161.838 187.136 157.671 180.235C155.884 177.275 154.107 174.332 152.333 171.389C150.71 168.696 149.998 166.655 150.069 165.063C150.137 163.527 150.942 162.317 152.632 161.275C154.366 160.205 155.832 160.025 157.229 160.652C158.676 161.3 160.148 162.854 161.753 165.507C162.88 167.369 164.001 169.236 165.123 171.103C167.676 175.353 170.231 179.606 172.851 183.816C174.622 186.661 176.782 188.212 179.056 188.197C181.328 188.181 183.48 186.604 185.237 183.739C189.232 177.227 193.181 170.682 197.019 164.072C198.03 162.331 199.186 161.207 200.485 160.705C201.771 160.207 203.282 160.285 205.082 161.121C206.622 161.836 207.526 163.06 207.792 164.561C208.061 166.078 207.684 167.928 206.548 169.861C205.495 171.654 204.445 173.449 203.396 175.244C198.826 183.062 194.26 190.87 189.361 198.464C187.834 200.832 187.118 203.004 187.18 205.188C187.241 207.367 188.076 209.492 189.53 211.768C193.735 218.35 197.7 225.082 201.67 231.822C203.099 234.249 204.53 236.678 205.973 239.101C207.374 241.455 207.933 243.421 207.768 245.004C207.607 246.553 206.744 247.817 205.091 248.779C203.529 249.687 202.082 249.82 200.704 249.238C199.295 248.643 197.88 247.266 196.49 244.984C194.721 242.081 192.972 239.136 191.222 236.189C189.23 232.834 187.235 229.475 185.206 226.168C183.436 223.285 181.315 221.691 179.061 221.691C176.807 221.691 174.668 223.283 172.86 226.178C170.318 230.25 167.855 234.377 165.395 238.499C164.025 240.794 162.657 243.087 161.276 245.369C160.248 247.067 159.125 248.406 157.799 249.076C156.513 249.726 154.958 249.784 152.947 248.751C151.24 247.874 150.324 246.67 150.1 245.209C149.87 243.718 150.344 241.86 151.649 239.669C153.643 236.32 155.667 232.983 157.692 229.643C161.694 223.045 165.7 216.439 169.489 209.718C170.141 208.561 170.316 207.176 170.376 205.814C170.399 205.281 170.406 204.761 170.412 204.25C170.423 203.405 170.433 202.586 170.519 201.783ZM156.365 208.124C153.423 212.837 150.592 217.624 147.701 222.511C146.433 224.654 145.154 226.816 143.85 228.999C143.412 229.732 142.973 230.438 142.545 231.128C141.559 232.716 140.624 234.223 139.852 235.795C137.491 240.605 137.142 245.62 139.21 250.662C141.736 256.821 146.255 260.683 152.963 261.55C160.151 262.479 166.201 260.157 170.339 254.043C172.543 250.785 174.585 247.408 176.69 243.928C177.505 242.582 178.328 241.22 179.174 239.844C179.957 241.148 180.709 242.403 181.44 243.624C183.247 246.642 184.925 249.444 186.628 252.229C189.608 257.103 193.693 260.298 198.186 261.571C202.684 262.845 207.548 262.18 212.049 259.408C216.413 256.721 219.148 252.74 220.06 248.204C220.972 243.672 220.059 238.622 217.2 233.795C215.325 230.628 213.419 227.487 211.515 224.348C208.168 218.83 204.827 213.32 201.663 207.699C201.28 207.019 201.073 205.993 201.079 204.921C201.085 203.85 201.304 202.82 201.691 202.133C204.653 196.885 207.77 191.746 210.891 186.598C213.105 182.947 215.322 179.292 217.487 175.592C222.945 166.265 220.542 155.648 211.909 150.484C203.193 145.271 192.697 148.051 187.013 157.084C185.167 160.018 183.387 162.997 181.486 166.176C180.722 167.455 179.939 168.766 179.124 170.119C178.382 168.905 177.661 167.726 176.956 166.572C175.17 163.649 173.481 160.887 171.798 158.122C168.77 153.146 164.61 149.859 160.045 148.524C155.475 147.187 150.537 147.818 145.993 150.61C141.629 153.292 138.953 157.315 138.124 161.925C137.296 166.529 138.315 171.683 141.268 176.639C142.607 178.886 143.939 181.138 145.271 183.391C148.937 189.59 152.607 195.796 156.428 201.904C157.181 203.107 157.494 204.097 157.473 205.041C157.451 205.989 157.092 206.96 156.365 208.124Z" fill="#374C86" stroke="#374C86"/>
<path d="M502 46V45.7126L501.919 45.4367C501.696 44.6756 501.471 43.9367 501.249 43.2094C500.786 41.6885 500.338 40.2178 499.952 38.6986C494.578 17.5524 474.74 0.47549 452.884 -1.61708L452.792 -1.62592L452.699 -1.62618C316.716 -2 181.357 -2 46.0013 -2H46H45.6818L45.3792 -1.90122C44.0008 -1.45114 42.5545 -1.02275 41.0777 -0.585364C37.7249 0.407718 34.2154 1.44719 30.9883 2.89228C13.3126 10.8074 3.04691 24.8226 -1.57958 43.8766L-1.63542 44.1065L-1.63604 44.3432C-1.99999 181.616 -2 318.307 -2 454.995V455V455.317L-1.9019 455.619C-1.59543 456.561 -1.29446 457.538 -0.988212 458.532C-0.302295 460.758 0.410081 463.071 1.2699 465.27C9.02182 485.093 23.4871 497.092 44.9121 501.595L45.113 501.637L45.3182 501.638C181.284 502 316.644 502 452 502H452.222L452.439 501.951C453.36 501.744 454.342 501.552 455.354 501.354C457.685 500.898 460.179 500.409 462.476 499.632C473.236 495.989 481.97 490.453 488.553 482.845C495.136 475.238 499.479 465.662 501.616 454.077L501.649 453.899L501.649 453.719C502 317.382 502 181.69 502 46ZM421.977 486.357C421.194 486.366 420.421 486.363 419.632 486.361C419.259 486.36 418.883 486.359 418.5 486.359C387.44 486.358 356.445 486.359 325.498 486.359C234.923 486.359 144.763 486.36 54.6024 486.344C33.9474 486.34 18.614 474.429 14.4453 455.395C13.8225 452.552 13.6824 449.501 13.6813 446.396C13.6475 351.52 13.6491 256.644 13.6506 161.768C13.6509 148.175 13.6511 134.582 13.6512 120.989V119.283H14.4454H15.3768H16.3082H17.2396H18.171H19.1023H20.0337H20.9651H21.8964H22.8278H23.7591H24.6904H25.6218H26.5531H27.4844H28.4157H29.347H30.2783H31.2096H32.1409H33.0722H34.0035H34.9347H35.866H36.7973H37.7285H38.6598H39.591H40.5223H41.4535H42.3847H43.316H44.2472H45.1784H46.1096H47.0408H47.972H48.9032H49.8344H50.7656H51.6968H52.6279H53.5591H54.4903H55.4214H56.3526H57.2837H58.2149H59.146H60.0772H61.0083H61.9394H62.8705H63.8017H64.7328H65.6639H66.595H67.5261H68.4572H69.3883H70.3194H71.2505H72.1815H73.1126H74.0437H74.9747H75.9058H76.8369H77.7679H78.699H79.63H80.5611H81.4921H82.4231H83.3541H84.2852H85.2162H86.1472H87.0782H88.0092H88.9402H89.8712H90.8022H91.7332H92.6642H93.5952H94.5262H95.4572H96.3881H97.3191H98.2501H99.181H100.112H101.043H101.974H102.905H103.836H104.767H105.698H106.629H107.56H108.491H109.421H110.352H111.283H112.214H113.145H114.076H115.007H115.938H116.869H117.8H118.731H119.661H120.592H121.523H122.454H123.385H124.316H125.247H126.178H127.108H128.039H128.97H129.901H130.832H131.763H132.694H133.624H134.555H135.486H136.417H137.348H138.279H139.21H140.14H141.071H142.002H142.933H143.864H144.795H145.725H146.656H147.587H148.518H149.449H150.379H151.31H152.241H153.172H154.103H155.033H155.964H156.895H157.826H158.757H159.687H160.618H161.549H162.48H163.411H164.341H165.272H166.203H167.134H168.064H168.995H169.926H170.857H171.788H172.718H173.649H174.58H175.511H176.441H177.372H178.303H179.234H180.164H181.095H182.026H182.957H183.888H184.818H185.749H186.68H187.611H188.541H189.472H190.403H191.334H192.264H193.195H194.126H195.057H195.987H196.918H197.849H198.779H199.71H200.641H201.572H202.502H203.433H204.364H205.295H206.225H207.156H208.087H209.018H209.948H210.879H211.81H212.741H213.671H214.602H215.533H216.464H217.394H218.325H219.256H220.186H221.117H222.048H222.979H223.909H224.84H225.771H226.702H227.632H228.563H229.494H230.425H231.355H232.286H233.217H234.148H235.078H236.009H236.94H237.87H238.801H239.732H240.663H241.593H242.524H243.455H244.386H245.316H246.247H247.178H248.109H249.039H249.97H250.901H251.832H252.762H253.693H254.624H255.555H256.485H257.416H258.347H259.278H260.209H261.139H262.07H263.001H263.932H264.862H265.793H266.724H267.655H268.585H269.516H270.447H271.378H272.309H273.239H274.17H275.101H276.032H276.962H277.893H278.824H279.755H280.686H281.616H282.547H283.478H284.409H285.34H286.27H287.201H288.132H289.063H289.994H290.925H291.855H292.786H293.717H294.648H295.579H296.509H297.44H298.371H299.302H300.233H301.164H302.095H303.025H303.956H304.887H305.818H306.749H307.68H308.61H309.541H310.472H311.403H312.334H313.265H314.196H315.127H316.057H316.988H317.919H318.85H319.781H320.712H321.643H322.574H323.505H324.436H325.366H326.297H327.228H328.159H329.09H330.021H330.952H331.883H332.814H333.745H334.676H335.607H336.538H337.469H338.4H339.331H340.262H341.192H342.123H343.054H343.985H344.916H345.847H346.778H347.709H348.64H349.571H350.502H351.433H352.364H353.295H354.226H355.157H356.089H357.02H357.951H358.882H359.813H360.744H361.675H362.606H363.537H364.468H365.399H366.33H367.261H368.192H369.123H370.054H370.986H371.917H372.848H373.779H374.71H375.641H376.572H377.503H378.435H379.366H380.297H381.228H382.159H383.09H384.021H384.953H385.884H386.815H387.746H388.677H389.608H390.54H391.471H392.402H393.333H394.265H395.196H396.127H397.058H397.989H398.921H399.852H400.783H401.714H402.646H403.577H404.508H405.44H406.371H407.302H408.233H409.165H410.096H411.027H411.959H412.89H413.821H414.753H415.684H416.615H417.547H418.478H419.409H420.341H421.272H422.204H423.135H424.066H424.998H425.929H426.861H427.792H428.723H429.655H430.586H431.518H432.449H433.381H434.312H435.244H436.175H437.107H438.038H438.97H439.901H440.833H441.764H442.696H443.627H444.559H445.49H446.422H447.353H448.285H449.216H450.148H451.08H452.011H452.943H453.874H454.806H455.738H456.669H457.601H458.533H459.464H460.396H461.327H462.259H463.191H464.122H465.054H465.986H466.918H467.849H468.781H469.713H470.644H471.576H472.508H473.44H474.371H475.303H476.235H477.167H478.099H479.03H479.962H480.894H481.826H482.758H483.689H484.621H485.553H486.349L486.349 121.888C486.348 150.084 486.348 178.28 486.349 206.476C486.35 286.249 486.351 366.023 486.328 445.796C486.322 466.942 472.708 483.609 453.227 485.833C446.207 486.635 439.166 486.529 431.977 486.42C428.679 486.371 425.35 486.32 421.977 486.357ZM100.036 13.6516C150.622 13.6449 201.208 13.6475 251.794 13.6502C270.363 13.6512 288.931 13.6521 307.5 13.6526C321.297 13.6527 335.005 13.6511 348.651 13.6496C380.991 13.6459 412.984 13.6423 444.976 13.6597C457.723 13.6666 468.016 17.7819 475.121 24.916C482.228 32.0512 486.327 42.3885 486.34 55.1816C486.351 66.6508 486.348 78.1191 486.345 89.6994C486.344 94.2631 486.343 98.8443 486.343 103.45H485.55H484.619H483.688H482.758H481.827H480.896H479.965H479.034H478.103H477.172H476.242H475.311H474.38H473.449H472.518H471.588H470.657H469.726H468.795H467.865H466.934H466.003H465.072H464.142H463.211H462.28H461.35H460.419H459.488H458.558H457.627H456.696H455.766H454.835H453.904H452.974H452.043H451.112H450.182H449.251H448.32H447.39H446.459H445.529H444.598H443.668H442.737H441.806H440.876H439.945H439.015H438.084H437.154H436.223H435.293H434.362H433.432H432.501H431.571H430.64H429.71H428.779H427.849H426.918H425.988H425.057H424.127H423.197H422.266H421.336H420.405H419.475H418.544H417.614H416.684H415.753H414.823H413.892H412.962H412.032H411.101H410.171H409.241H408.31H407.38H406.45H405.519H404.589H403.659H402.728H401.798H400.868H399.937H399.007H398.077H397.147H396.216H395.286H394.356H393.426H392.495H391.565H390.635H389.705H388.774H387.844H386.914H385.984H385.053H384.123H383.193H382.263H381.333H380.402H379.472H378.542H377.612H376.682H375.752H374.821H373.891H372.961H372.031H371.101H370.171H369.241H368.31H367.38H366.45H365.52H364.59H363.66H362.73H361.8H360.869H359.939H359.009H358.079H357.149H356.219H355.289H354.359H353.429H352.499H351.569H350.639H349.709H348.779H347.849H346.919H345.988H345.058H344.128H343.198H342.268H341.338H340.408H339.478H338.548H337.618H336.688H335.758H334.828H333.898H332.968H332.038H331.108H330.178H329.249H328.319H327.389H326.459H325.529H324.599H323.669H322.739H321.809H320.879H319.949H319.019H318.089H317.159H316.229H315.299H314.369H313.44H312.51H311.58H310.65H309.72H308.79H307.86H306.93H306H305.07H304.141H303.211H302.281H301.351H300.421H299.491H298.561H297.631H296.701H295.772H294.842H293.912H292.982H292.052H291.122H290.192H289.263H288.333H287.403H286.473H285.543H284.613H283.684H282.754H281.824H280.894H279.964H279.034H278.105H277.175H276.245H275.315H274.385H273.455H272.526H271.596H270.666H269.736H268.806H267.877H266.947H266.017H265.087H264.157H263.228H262.298H261.368H260.438H259.508H258.579H257.649H256.719H255.789H254.859H253.93H253H252.07H251.14H250.21H249.281H248.351H247.421H246.491H245.562H244.632H243.702H242.772H241.842H240.913H239.983H239.053H238.123H237.194H236.264H235.334H234.404H233.475H232.545H231.615H230.685H229.755H228.826H227.896H226.966H226.036H225.107H224.177H223.247H222.317H221.388H220.458H219.528H218.598H217.669H216.739H215.809H214.879H213.95H213.02H212.09H211.16H210.231H209.301H208.371H207.441H206.511H205.582H204.652H203.722H202.792H201.863H200.933H200.003H199.073H198.144H197.214H196.284H195.354H194.425H193.495H192.565H191.635H190.705H189.776H188.846H187.916H186.986H186.057H185.127H184.197H183.267H182.338H181.408H180.478H179.548H178.618H177.689H176.759H175.829H174.899H173.97H173.04H172.11H171.18H170.25H169.321H168.391H167.461H166.531H165.601H164.672H163.742H162.812H161.882H160.952H160.023H159.093H158.163H157.233H156.303H155.374H154.444H153.514H152.584H151.654H150.725H149.795H148.865H147.935H147.005H146.076H145.146H144.216H143.286H142.356H141.426H140.497H139.567H138.637H137.707H136.777H135.847H134.917H133.988H133.058H132.128H131.198H130.268H129.338H128.408H127.479H126.549H125.619H124.689H123.759H122.829H121.899H120.969H120.04H119.11H118.18H117.25H116.32H115.39H114.46H113.53H112.6H111.67H110.741H109.811H108.881H107.951H107.021H106.091H105.161H104.231H103.301H102.371H101.441H100.511H99.5813H98.6514H97.7214H96.7915H95.8615H94.9315H94.0016H93.0716H92.1416H91.2116H90.2816H89.3517H88.4217H87.4917H86.5617H85.6317H84.7017H83.7717H82.8417H81.9116H80.9816H80.0516H79.1216H78.1915H77.2615H76.3315H75.4014H74.4714H73.5413H72.6113H71.6812H70.7512H69.8211H68.891H67.961H67.0309H66.1008H65.1707H64.2406H63.3105H62.3804H61.4503H60.5202H59.5901H58.66H57.7299H56.7998H55.8696H54.9395H54.0094H53.0792H52.1491H51.2189H50.2888H49.3586H48.4285H47.4983H46.5681H45.6379H44.7078H43.7776H42.8474H41.9172H40.987H40.0568H39.1266H38.1964H37.2661H36.3359H35.4057H34.4754H33.5452H32.615H31.6847H30.7545H29.8242H28.8939H27.9637H27.0334H26.1031H25.1728H24.2425H23.3122H22.3819H21.4516H20.5213H19.591H18.6607H17.7303H16.8H15.8697H14.9393H14.009H13.6846C13.6823 98.4182 13.6594 93.3936 13.6366 88.3739C13.5787 75.6366 13.5209 62.9299 13.7992 50.2175C14.2212 30.9487 30.8403 14.2974 50.0965 13.8242C62.209 13.5265 74.3184 13.5722 86.4603 13.6181C90.9803 13.6352 95.5048 13.6522 100.036 13.6516Z" fill="#374C86" stroke="#374C86" stroke-width="4"/>
<path d="M47.9001 343.5V343.5C47.8997 340.832 47.896 338.26 47.8923 335.754C47.8842 330.119 47.8765 324.821 47.9078 319.52C47.9227 316.996 48.4134 315.494 49.2862 314.599C50.1517 313.71 51.6069 313.201 54.1013 313.199C105.237 313.166 156.372 313.168 207.508 313.201C210.112 313.203 211.642 313.729 212.551 314.661C213.467 315.599 213.975 317.173 213.976 319.818C213.998 361.792 213.998 403.766 213.979 445.741C213.978 448.459 213.511 449.931 212.645 450.774C211.772 451.625 210.245 452.082 207.454 452.082C156.485 452.099 105.516 452.099 54.5465 452.089C51.5209 452.089 50.0035 451.67 49.1672 450.832C48.3301 449.992 47.9131 448.469 47.9118 445.438C47.9013 420.11 47.901 394.783 47.9008 369.455C47.9007 360.803 47.9006 352.152 47.9001 343.5ZM209.016 300.002C205.477 299.911 201.924 299.933 198.23 299.957C196.521 299.968 194.782 299.979 192.999 299.98C180.236 299.98 167.51 299.98 154.813 299.98C121.606 299.98 88.5892 299.98 55.5721 299.983C48.6181 299.984 43.212 301.748 39.5519 305.444C35.8935 309.139 34.1464 314.596 34.1446 321.624C34.1342 362.602 34.1319 403.58 34.147 444.559C34.1495 451.299 36.0012 456.658 39.6983 460.333C43.3943 464.005 48.7888 465.849 55.5789 465.86C69.9215 465.883 84.2646 465.877 98.6066 465.872C104.088 465.87 109.568 465.868 115.049 465.868C123.481 465.867 131.914 465.869 140.347 465.871C162.564 465.876 184.783 465.881 207.002 465.839C212.974 465.828 218.026 464.036 221.6 460.747C225.182 457.45 227.188 452.73 227.202 447.054C227.311 404.076 227.308 361.096 227.185 318.118C227.156 307.78 219.301 300.267 209.016 300.002Z" fill="#374C86" stroke="#374C86" stroke-width="2"/>
<path d="M469.711 190V190C469.71 187.597 469.715 185.241 469.72 182.917C469.731 177.84 469.741 172.918 469.692 168C469.629 161.681 467.802 156.591 464.294 153.079C460.784 149.565 455.721 147.762 449.448 147.76C397.303 147.739 345.159 147.742 293.014 147.762C286.606 147.765 281.51 149.485 278.014 152.943C274.517 156.402 272.769 161.453 272.756 167.81C272.716 188.636 272.719 209.461 272.755 230.287C272.767 236.827 274.58 242.042 278.176 245.62C281.772 249.198 287.006 250.998 293.567 251.001C345.212 251.019 396.856 251.017 448.501 251.002C455.145 251 460.465 249.163 464.13 245.531C467.796 241.899 469.668 236.61 469.697 229.988C469.737 220.864 469.728 211.739 469.719 202.45C469.715 198.337 469.711 194.191 469.711 190ZM293.007 161.018C300.397 161.003 307.786 161.006 315.176 161.01C318.284 161.011 321.392 161.013 324.5 161.013C335.135 161.013 345.705 161.013 356.228 161.013C387.256 161.013 417.867 161.013 448.479 161.018C450.227 161.018 451.559 161.107 452.585 161.326C453.601 161.543 454.248 161.874 454.692 162.309C455.135 162.743 455.469 163.372 455.689 164.36C455.912 165.361 456.003 166.664 456.004 168.378C456.017 189.041 456.019 209.704 456.011 230.367C456.01 233.59 455.601 235.186 454.739 236.059C453.882 236.927 452.311 237.345 449.111 237.346C397.12 237.358 345.129 237.359 293.138 237.345C289.919 237.344 288.285 236.888 287.377 235.951C286.458 235.005 286.018 233.303 286.016 229.999C286.006 209.336 286.004 188.673 286.02 168.01C286.022 164.905 286.476 163.291 287.381 162.385C288.287 161.478 289.903 161.024 293.007 161.018Z" fill="#374C86" stroke="#374C86" stroke-width="2"/>
<path d="M303 466.378C314.637 466.378 326.251 466.379 337.845 466.379C378.84 466.381 419.599 466.383 460.358 466.37C463.179 466.369 465.659 465.764 467.431 464.49C469.277 463.162 470.253 461.165 470.018 458.783C469.758 456.137 468.659 454.225 466.844 453.04C465.114 451.911 462.931 451.576 460.733 451.577C430.15 451.589 399.573 451.59 368.995 451.59C339.798 451.591 310.6 451.591 281.397 451.602C278.718 451.603 276.395 452.19 274.739 453.49C273.016 454.843 272.2 456.823 272.334 459.132C272.495 461.921 273.596 463.873 275.464 465.037C277.213 466.127 279.419 466.384 281.521 466.381C286.418 466.375 291.314 466.376 296.383 466.377C298.553 466.378 300.754 466.378 303 466.378ZM303 466.378L303 464.878L303 466.378Z" fill="#374C86" stroke="#374C86" stroke-width="3"/>
<path d="M331 401.059H331.001L345.942 401.06C383.837 401.065 421.386 401.07 458.936 401.076C459.188 401.076 459.479 401.053 459.835 401.017C459.902 401.01 459.973 401.003 460.046 400.996C460.332 400.966 460.657 400.933 460.966 400.913C461.666 400.87 462.801 400.846 463.719 401.487L331 401.059ZM331 401.059C327.317 401.059 323.662 401.059 320.028 401.058C308.379 401.058 296.951 401.058 285.523 401.061H285.523M331 401.059L285.523 401.061M285.523 401.061C285.067 401.061 284.602 401.058 284.131 401.055C282.6 401.044 281.003 401.032 279.43 401.137M285.523 401.061L279.529 402.633L279.43 401.137M467.154 403.996C468.237 404.921 469.395 406.153 469.748 407.703C470.243 409.872 469.579 411.737 468.23 413.085C466.939 414.376 465.094 415.134 463.201 415.434C462.502 415.544 461.818 415.554 461.202 415.543C460.911 415.537 460.661 415.529 460.424 415.52C460.105 415.509 459.81 415.499 459.473 415.499C400.503 415.499 341.533 415.499 282.563 415.497L467.154 403.996ZM467.154 403.996C466.267 403.237 465.231 402.527 464.346 401.919M467.154 403.996L464.346 401.919M464.346 401.919C464.126 401.769 463.916 401.624 463.719 401.487L464.346 401.919ZM279.388 415.454C277.527 415.23 275.761 414.638 274.442 413.431C273.08 412.184 272.364 410.437 272.351 408.276C272.337 406.129 272.997 404.341 274.355 403.072C275.681 401.833 277.485 401.266 279.43 401.137M279.388 415.454L279.43 401.137M279.388 415.454C280.198 415.552 281.088 415.529 281.83 415.51M279.388 415.454L281.83 415.51M281.83 415.51C282.097 415.503 282.345 415.497 282.563 415.497L281.83 415.51Z" fill="#374C86" stroke="#374C86" stroke-width="3"/>
<path d="M272.359 306.47L272.359 306.47C272.201 308.758 272.953 310.696 274.739 311.98C276.407 313.179 278.773 313.654 281.55 313.657C294.287 313.672 307.024 313.67 319.947 313.667C324.934 313.667 329.947 313.666 335 313.666C342.894 313.666 350.745 313.666 358.565 313.666C377.301 313.666 395.861 313.666 414.422 313.665C418.489 313.665 422.558 313.667 426.626 313.668C438.209 313.672 449.795 313.677 461.379 313.644C463.919 313.636 466.179 313.012 467.781 311.733C469.442 310.407 470.276 308.462 469.994 306.217C469.649 303.482 468.427 301.657 466.514 300.612C464.734 299.639 462.541 299.452 460.463 299.454C400.856 299.502 341.249 299.498 281.642 299.457C279.568 299.455 277.355 299.639 275.593 300.651C273.682 301.748 272.553 303.659 272.359 306.47Z" fill="#374C86" stroke="#374C86" stroke-width="3"/>
<path d="M458.861 350.396C419.74 350.394 380.619 350.394 341.179 350.394L322 350.395C319.538 350.395 317.125 350.395 314.746 350.395C309.564 350.394 304.543 350.394 299.523 350.395C297.673 350.395 295.822 350.394 293.971 350.393C289.328 350.391 284.683 350.389 280.039 350.401C277.974 350.406 276.022 350.881 274.572 352.106C273.074 353.371 272.342 355.24 272.371 357.523C272.401 359.798 273.181 361.634 274.694 362.868C276.157 364.062 278.101 364.523 280.148 364.532C280.591 364.534 281.038 364.533 281.479 364.533C281.706 364.532 281.931 364.532 282.153 364.532C282.153 364.532 282.153 364.532 282.153 364.532L301.808 364.531C354.529 364.529 407.25 364.527 459.971 364.523C460.202 364.523 460.468 364.532 460.757 364.54C461.641 364.568 462.74 364.601 463.723 364.427C465.546 364.103 467.278 363.318 468.463 362.028C469.696 360.685 470.249 358.875 469.747 356.837C469.39 355.386 468.37 354.182 467.359 353.253C466.322 352.299 465.105 351.467 464.103 350.803C463.128 350.159 461.942 350.17 461.147 350.218C460.804 350.238 460.445 350.274 460.124 350.307C460.043 350.315 459.964 350.323 459.889 350.33C459.491 350.369 459.156 350.396 458.861 350.396Z" fill="#374C86" stroke="#374C86" stroke-width="3"/>
<path d="M411 78.0083C398.509 78.0084 386.517 78.0396 374.526 77.9993C363.669 77.9628 355.936 70.8275 355.799 60.8113C355.658 50.5673 363.452 43.044 374.453 43.0101C394.271 42.9491 414.091 42.9547 433.909 43.0072C444.882 43.0362 452.977 50.5183 453.006 60.4823C453.036 70.506 444.973 77.9534 433.984 78.002C426.489 78.0351 418.995 78.0083 411 78.0083ZM419.497 54.5268C404.361 54.53 389.225 54.55 374.09 54.525C370.008 54.5183 367.122 56.1419 367.097 60.465C367.073 64.6736 369.772 66.6852 373.881 66.6904C394.173 66.7163 414.465 66.7265 434.756 66.6968C438.867 66.6908 441.65 64.6082 441.57 60.4238C441.49 56.1905 438.58 54.4631 434.466 54.5211C429.809 54.5867 425.152 54.5303 419.497 54.5268Z" fill="#374C86"/>
<path d="M139.448 65.9847C135.441 74.959 127.799 79.4026 119.954 77.6084C111.214 75.6095 105.672 68.7856 105.816 60.1995C105.959 51.6663 111.688 44.9106 120.597 43.3318C131.573 41.3865 143.44 51.9578 139.448 65.9847ZM120.484 55.0258C117.462 56.9338 115.946 59.5374 117.561 62.9934C118.993 66.0592 121.904 67.8683 124.853 66.1285C126.819 64.9681 128.83 61.8372 128.74 59.6743C128.567 55.4983 125.288 54.0189 120.484 55.0258Z" fill="#374C86"/>
<path d="M51.1655 75.0383C45.1672 70.6952 42.206 65.0835 43.3713 58.1103C44.5785 50.8866 48.7863 45.8321 56.1753 43.8624C63.1928 41.9917 70.4246 44.5321 74.56 50.4038C79.1096 56.8635 79.0834 64.4142 74.4891 70.7924C70.3364 76.5575 62.9289 79.1363 56.0076 77.1173C54.4524 76.6636 53.002 75.8506 51.1655 75.0383ZM55.1323 63.2864C56.9917 66.0357 59.4296 67.5764 62.7365 66.1719C65.854 64.8478 67.3591 62.3399 66.3541 58.9448C65.3653 55.6045 62.8349 54.054 59.464 54.7302C55.2006 55.5853 54.0145 58.5814 55.1323 63.2864Z" fill="#374C86"/>
<path d="M168.865 56.1067C172.077 47.6187 178.677 42.7148 186.04 43.0053C193.41 43.2962 199.921 48.4428 202.094 55.6953C204.153 62.5659 201.699 70.0951 196.035 74.2894C189.77 78.9293 182.565 79.1878 176.115 75.0041C169.811 70.9146 167.001 63.8163 168.865 56.1067ZM191.61 59.7832C190.565 55.7307 187.779 53.4449 183.956 55.022C181.986 55.8344 179.727 59.2519 179.968 61.2002C180.216 63.2108 183.123 66.0283 185.25 66.4216C188.968 67.1089 191.287 64.4403 191.61 59.7832Z" fill="#374C86"/>
</svg>
