<?xml version="1.0" encoding="utf-8"?>
<!-- Generator: Adobe Illustrator 26.0.2, SVG Export Plug-In . SVG Version: 6.00 Build 0)  -->
<svg version="1.1" id="Layer_1" xmlns="http://www.w3.org/2000/svg" xmlns:xlink="http://www.w3.org/1999/xlink" x="0px" y="0px"
	 viewBox="0 0 498 498" style="enable-background:new 0 0 498 498;" xml:space="preserve">
<style type="text/css">
	.st0{fill:#374C86;}
</style>
<path class="st0" d="M497.1,313.3c0,52.6,0,104.6,0,156.6c0,16.7-10.3,27.1-27,27.1c-147.8,0-295.6,0-443.4,0
	c-16.3,0-26.7-10.5-26.7-26.8c0-147.8,0-295.6,0-443.4c0-16.4,10.4-26.8,26.7-26.8c147.8,0,295.6,0,443.4,0c16.7,0,27,10.3,27,27.1
	C497.1,122.4,497.1,217.6,497.1,313.3z M391.4,481.1c26.4,0,52.7,0,79.1,0c8,0,10.6-2.7,10.6-10.8c0-127.6,0-255.2,0-382.8
	c0-1.7-0.2-3.4-0.3-5.1c-155.2,0-309.9,0-464.9,0c0,2.3,0,4.2,0,6.2c0,126.9,0,253.8,0,380.6c0,9.5,2.3,11.8,11.8,11.8
	C148.6,481.1,269.5,481.1,391.4,481.1z M36.7,66.1c148.1,0,296.1,0,444.4,0c0-13.2,0-25.8,0-38.3c0-9.6-2.3-11.8-11.7-11.8
	c-147.3,0-294.5,0-441.8,0c-1.4,0-2.9-0.1-4.2,0c-4.1,0.5-7.2,3-7.3,7C15.8,37.3,16,51.6,16,65.7c0.9,0.2,1.2,0.4,1.6,0.4
	C23.6,66.1,29.6,66.1,36.7,66.1z"/>
<path class="st0" d="M305.1,144.5c0,47.6,0,94.7,0,141.7c0,9.5-2.4,12-11.8,12c-77.5,0-155,0-232.5,0c-9.4,0-11.9-2.5-11.9-11.9
	c0-53.1,0-106.2,0-159.2c0-8.3,2.9-11.2,11-11.2c78,0,156,0,234.1,0c8.3,0,11.1,2.8,11.1,11.2C305.2,132.6,305.1,138.3,305.1,144.5z
	 M125.9,127.4c-21.8,0-43.7,0-65.3,0c0,49.3,0,97.8,0,147.2c5.4-8.7,10.3-16.6,15.2-24.5c12.2-19.8,24.4-39.7,36.7-59.5
	c4.9-7.8,11.4-7.7,16.3-0.1c2.3,3.6,4.4,7.3,6.7,10.9c7.5,12,15,24.1,22.9,36.7c1.5-2.5,2.6-4.3,3.6-6.1c15.1-26,30.1-52,45.2-78
	c5.3-9,11.8-8.9,17,0.1c17.1,29.6,34.3,59.1,51.4,88.7c5.7,9.8,11.4,19.5,17.5,30c0-49.1,0-97.1,0-145.4
	C237.5,127.4,182.2,127.4,125.9,127.4z M154.2,285.8c44.6,0,89.3,0,134.9,0c-25-41.9-49.3-82.6-74-124.2
	c-24.8,41.6-49.1,82.3-74,124.2C145.9,285.8,149.5,285.8,154.2,285.8z M73.7,270.4c-3,4.8-6,9.6-9.7,15.4c20.8,0,40.3,0.1,59.8-0.2
	c1.5,0,3.3-2,4.3-3.5c5.1-8,9.2-16.7,15-24.1c8.2-10.3,8.5-18.9-0.2-29.4c-7.9-9.6-14-20.9-21.4-32.2
	C105.4,221.5,89.8,245.5,73.7,270.4z"/>
<path class="st0" d="M331.6,341.5c1.5-7.8,3.7-9.9,10.9-9.9c31.5,0,63-0.1,94.4,0c7.3,0,10.2,3.1,10.2,10.4c0,31.7,0,63.3,0,95
	c0,7.5-2.7,10.2-10.2,10.2c-31.1,0-62.2,0-93.4,0c-9.4,0-12-2.5-12-11.8C331.6,404.3,331.6,373.1,331.6,341.5z M344.5,428.3
	c0,2.1,0,4.1,0,6.1c30.4,0,60.3,0,89.8,0c0-30.2,0-60.1,0-90.3c-29,0-57.5,0.1-86.1-0.1c-4.4,0-3.7,2.8-3.7,5.4
	C344.5,375.3,344.5,401.2,344.5,428.3z"/>
<path class="st0" d="M190.6,341.4c1.5-7.8,3.7-9.9,10.9-9.9c31.5,0,63-0.1,94.4,0c7.3,0,10.2,3.1,10.2,10.4c0,31.7,0,63.3,0,95
	c0,7.5-2.7,10.2-10.2,10.2c-31.1,0-62.2,0-93.4,0c-9.4,0-12-2.5-12-11.8C190.6,404.1,190.6,373,190.6,341.4z M203.5,428.1
	c0,2.1,0,4.1,0,6.1c30.4,0,60.3,0,89.8,0c0-30.2,0-60.1,0-90.3c-29,0-57.5,0.1-86.1-0.1c-4.4,0-3.7,2.8-3.7,5.4
	C203.5,375.2,203.5,401.1,203.5,428.1z"/>
<path class="st0" d="M49.9,341.5c1.5-7.8,3.7-9.9,10.9-9.9c31.5,0,63-0.1,94.4,0c7.3,0,10.2,3.1,10.2,10.4c0,31.7,0,63.3,0,95
	c0,7.5-2.7,10.2-10.2,10.2c-31.1,0-62.2,0-93.4,0c-9.4,0-12-2.5-12-11.8C49.9,404.3,49.9,373.1,49.9,341.5z M62.7,428.3
	c0,2.1,0,4.1,0,6.1c30.4,0,60.3,0,89.8,0c0-30.2,0-60.1,0-90.3c-29,0-57.5,0.1-86.1-0.1c-4.4,0-3.7,2.8-3.7,5.4
	C62.7,375.3,62.7,401.2,62.7,428.3z"/>
<path class="st0" d="M404.7,147c11.1,0,21.7,0,32.3,0c6.4,0,10,2,10.2,5.4c0.2,3.6-3.7,6.1-10,6.1c-31.8,0-63.6,0-95.4,0
	c-5.9,0-9.9-2.5-10-5.8c-0.1-3.5,3.8-5.7,10.3-5.8C362.8,147,383.5,147,404.7,147z"/>
<path class="st0" d="M404.7,184.9c11.1,0,21.7,0,32.3,0c6.4,0,10,2,10.2,5.4c0.2,3.6-3.7,6.1-10,6.1c-31.8,0-63.6,0-95.4,0
	c-5.9,0-9.9-2.5-10-5.8c-0.1-3.5,3.8-5.7,10.3-5.8C362.8,184.9,383.5,184.9,404.7,184.9z"/>
<path class="st0" d="M404.7,216.7c11.1,0,21.7,0,32.3,0c6.4,0,10,2,10.2,5.4c0.2,3.6-3.7,6.1-10,6.1c-31.8,0-63.6,0-95.4,0
	c-5.9,0-9.9-2.5-10-5.8c-0.1-3.5,3.8-5.7,10.3-5.8C362.8,216.7,383.5,216.7,404.7,216.7z"/>
<path class="st0" d="M404.7,249.8c11.1,0,21.7,0,32.3,0c6.4,0,10,2,10.2,5.4c0.2,3.6-3.7,6.1-10,6.1c-31.8,0-63.6,0-95.4,0
	c-5.9,0-9.9-2.5-10-5.8c-0.1-3.5,3.8-5.7,10.3-5.8C362.8,249.8,383.5,249.8,404.7,249.8z"/>
<path class="st0" d="M358,285.8c12.9,0,25.3,0,37.7,0c6.3,0,10,2.2,10.1,5.9c0.1,3.8-3.8,6.4-10.2,6.5c-17.9,0.1-35.7,0.1-53.6,0
	c-6.3,0-10.3-2.8-10.1-6.5c0.2-3.6,3.9-5.8,10.2-5.9C347.2,285.8,352.3,285.8,358,285.8z"/>
<path class="st0" d="M431.1,115.9c3.5,0.1,6.6-0.1,9.5,0.4c4.4,0.6,6.9,2.8,6.5,6c-0.4,3.3-3.5,5.1-8.3,5.2c-6.4,0-12.7,0-19.1,0
	c-12,0-24,0-36.1,0c-6.5,0-10-1.9-10.2-5.4c-0.2-3.7,3.8-6.1,10.5-6.1C399.5,115.8,415.1,115.9,431.1,115.9z"/>
<path class="st0" d="M434.6,298.3c-9.1-0.4-13.3-3.9-10.7-8.6c2.8-5,8.7-3.7,13.8-3.8c4.3-0.1,7.6,0.9,9.2,4.3
	c1.3,2.9-0.6,6.3-4.5,7.3C440,298.1,437.4,298,434.6,298.3z"/>
<path class="st0" d="M350.6,127.1c-3.8,0.2-7.1,0.3-10.5,0.3c-4.8-0.1-8.2-2.2-8.2-5.2c0-3.1,2.3-5.4,6.7-5.9
	c3.4-0.4,7.3-0.8,10.4,0c2.7,0.7,5.5,2.7,6.6,4.7C356.9,123.5,354.6,125.7,350.6,127.1z"/>
<path class="st0" d="M251.7,33c53.3,0,106,0,158.7,0c2.1,0,4.2,0.3,6.2,0.8c4,1,6.1,4.1,5.8,7.8c-0.3,4.2-3.2,6.9-7.7,7.4
	c-1.2,0.1-2.5,0-3.7,0c-63.9,0-127.8,0-191.6,0c-0.9,0-1.8,0-2.7,0c-5.6-0.1-9.6-3.4-9.5-7.9c0-4.2,4.3-8,9.5-8.1
	C228.2,32.9,239.7,33,251.7,33z"/>
<path class="st0" d="M458.7,48.3c-3.7,0.4-7,0.7-10.3,0.6c-5-0.1-8.4-3.2-8.7-7.4c-0.2-3.9,3.3-7.9,7.8-8.4c2.8-0.3,5.6-0.3,8.4,0
	c4.3,0.5,7.7,3.1,7.8,7.2C463.7,42.8,460.7,45.5,458.7,48.3z"/>
<path class="st0" d="M95.6,34.9c2.8,3.1,4.8,6.5,1.9,9.6c-2.1,2.2-5.6,3.3-8.7,4.4c-1.7,0.6-3.8,0.2-5.8,0.1
	c-4.8-0.2-8.8-3.5-8.6-7.5c0.2-4.5,3.1-7.8,7.4-8.1C86.4,32.9,90.9,34.1,95.6,34.9z"/>
<path class="st0" d="M51.2,48.7c-3.4,0.2-6.4,0.2-9.5,0.2c-4.8,0-7.9-2.7-8.5-7.1c-0.6-4.3,2.2-7.6,6.4-8.4c3.6-0.7,7.4-0.7,11-0.2
	c3.8,0.6,6.3,3.4,6.6,7.3C57.6,44.4,55.3,47.2,51.2,48.7z"/>
<path class="st0" d="M137.7,35.4c4.6,8.1,1.6,13.4-7.3,13.6c-1.9,0-3.9,0-5.8,0c-4.7-0.1-7.6-2.7-8.6-7.1c-0.7-3.5,2.8-8.3,7-8.5
	C127.9,33.2,132.7,34.5,137.7,35.4z"/>
</svg>
