<svg width="460" height="336" viewBox="0 0 460 336" fill="none" xmlns="http://www.w3.org/2000/svg">
<path d="M292.728 24.4664C285.504 50.1702 278.444 75.4795 271.236 100.746C250.611 173.047 229.935 245.332 209.257 317.618C204.915 332.798 190.81 339.277 177.789 332.148C169.146 327.416 165.293 317.282 168.334 306.63C178.88 269.693 189.533 232.786 200.09 195.852C217.004 136.679 234.129 77.5631 250.606 18.268C255.467 0.77656 271.896 -3.02707 282.695 3.31745C290.534 7.92309 293.442 15.1882 292.728 24.4664Z" fill="black"/>
<path d="M403.78 103.22C419.921 119.377 435.83 135.267 451.691 151.203C462.044 161.605 462.122 174.322 451.758 184.728C425.073 211.517 398.287 238.206 371.593 264.986C364.74 271.862 356.762 274.624 347.486 271.326C332.701 266.069 328.897 247.579 340.225 236.157C359.814 216.407 379.546 196.799 399.248 177.162C408.449 167.99 408.483 168.02 399.15 158.695C379.826 139.385 360.526 120.052 341.157 100.787C335.313 94.9749 332.41 88.2169 334.172 79.9978C337.664 63.718 356.762 57.8297 369.497 69.1797C374.587 73.7157 379.218 78.767 384.056 83.5845C390.547 90.0467 397.037 96.5097 403.78 103.22Z" fill="black"/>
<path d="M81.284 257.716C57.0247 233.42 33.0186 209.37 9.0042 185.329C-2.27325 174.039 -2.38593 161.996 8.7837 150.804C35.3765 124.16 61.981 97.5263 88.6156 70.9232C96.3297 63.2182 104.842 61.2737 113.616 65.0036C127.552 70.9285 130.767 88.5961 119.691 99.9255C105.601 114.338 91.2428 128.487 76.9878 142.737C69.9193 149.803 62.9641 156.992 55.6769 163.826C52.31 166.984 52.4717 169.011 55.711 172.206C76.8201 193.027 97.6994 214.081 118.76 234.952C124.936 241.073 127.79 248.16 125.707 256.673C121.857 272.402 103.187 277.937 90.7803 267.089C87.5266 264.245 84.6069 261.018 81.284 257.716Z" fill="black"/>
</svg>
